<svg width="24" height="25" viewBox="0 0 24 25" fill="none" xmlns="http://www.w3.org/2000/svg">
<path fill-rule="evenodd" clip-rule="evenodd" d="M12 3.5C7.02944 3.5 3 7.52944 3 12.5C3 17.4706 7.02944 21.5 12 21.5C16.9706 21.5 21 17.4706 21 12.5C21 7.52944 16.9706 3.5 12 3.5ZM1 12.5C1 6.42487 5.92487 1.5 12 1.5C18.0751 1.5 23 6.42487 23 12.5C23 18.5751 18.0751 23.5 12 23.5C5.92487 23.5 1 18.5751 1 12.5Z" fill="#FF7C04"/>
<path fill-rule="evenodd" clip-rule="evenodd" d="M8.79686 13.8958C8.46468 13.4576 7.84044 13.3697 7.4 13.7C6.95817 14.0314 6.86863 14.6582 7.2 15.1L8 14.5C7.2 15.1 7.19975 15.0997 7.2 15.1L7.20101 15.1013L7.20216 15.1029L7.2049 15.1065L7.21211 15.1159L7.23341 15.1432C7.25065 15.1649 7.27401 15.1938 7.30336 15.2288C7.36201 15.2987 7.445 15.3933 7.55145 15.5044C7.76353 15.7257 8.07343 16.0172 8.47433 16.3087C9.27227 16.8891 10.4745 17.5 12 17.5C13.5255 17.5 14.7277 16.8891 15.5257 16.3087C15.9266 16.0172 16.2365 15.7257 16.4486 15.5044C16.555 15.3933 16.638 15.2987 16.6966 15.2288C16.726 15.1938 16.7493 15.1649 16.7666 15.1432L16.7879 15.1159L16.7951 15.1065L16.7978 15.1029L16.799 15.1013C16.7992 15.101 16.8 15.1 16 14.5L16.8 15.1C17.1314 14.6582 17.0418 14.0314 16.6 13.7C16.1596 13.3697 15.5353 13.4576 15.2031 13.8958L15.1985 13.9018C15.1925 13.9093 15.1812 13.9234 15.1647 13.9431C15.1315 13.9826 15.0778 14.0442 15.0046 14.1206C14.8573 14.2743 14.6359 14.4828 14.3493 14.6913C13.7723 15.1109 12.9745 15.5 12 15.5C11.0255 15.5 10.2277 15.1109 9.65067 14.6913C9.36407 14.4828 9.14272 14.2743 8.99543 14.1206C8.92219 14.0442 8.86846 13.9826 8.83531 13.9431C8.81877 13.9234 8.80745 13.9093 8.8015 13.9018L8.79686 13.8958Z" fill="#FF7C04"/>
<path fill-rule="evenodd" clip-rule="evenodd" d="M8 9.5C8 8.94772 8.44772 8.5 9 8.5H9.01C9.56229 8.5 10.01 8.94772 10.01 9.5C10.01 10.0523 9.56229 10.5 9.01 10.5H9C8.44772 10.5 8 10.0523 8 9.5Z" fill="#FF7C04"/>
<path fill-rule="evenodd" clip-rule="evenodd" d="M14 9.5C14 8.94772 14.4477 8.5 15 8.5H15.01C15.5623 8.5 16.01 8.94772 16.01 9.5C16.01 10.0523 15.5623 10.5 15.01 10.5H15C14.4477 10.5 14 10.0523 14 9.5Z" fill="#FF7C04"/>
</svg>
