<svg width="19" height="18" viewBox="0 0 19 18" fill="none" xmlns="http://www.w3.org/2000/svg">
<path d="M18.4305 11.2663V17.8627H14.606V11.7084C14.606 10.1631 14.0538 9.10778 12.6691 9.10778C11.6124 9.10778 10.9846 9.81825 10.7074 10.5062C10.6067 10.752 10.5808 11.0934 10.5808 11.4383V17.8625H6.75603C6.75603 17.8625 6.80737 7.43898 6.75603 6.36001H10.5811V7.99002C10.5733 8.00285 10.5625 8.0154 10.5557 8.02767H10.5811V7.99002C11.0893 7.20796 11.9957 6.08991 14.0279 6.08991C16.544 6.08991 18.4305 7.73389 18.4305 11.2663ZM2.75503 0.81543C1.44675 0.81543 0.59082 1.67421 0.59082 2.80252C0.59082 3.90688 1.42194 4.79047 2.70483 4.79047H2.72965C4.0636 4.79047 4.89301 3.90688 4.89301 2.80252C4.86762 1.67421 4.0636 0.81543 2.75503 0.81543ZM0.818136 17.8627H4.64145V6.36001H0.818136V17.8627Z" fill="#C7CCDB"/>
</svg>
