<svg width="191" height="34" viewBox="0 0 191 34" fill="none" xmlns="http://www.w3.org/2000/svg">
<path d="M64.5786 12.5337V16.1236H58.9374V31.2389H54.7267V16.1236H49.0854V12.5337H64.5786Z" fill="#150639"/>
<path d="M63.5006 24.2481C63.5006 22.9885 63.6896 21.8908 64.0675 20.9551C64.4633 20.0014 64.9762 19.2096 65.606 18.5798C66.2358 17.95 66.9556 17.4732 67.7653 17.1493C68.5931 16.8254 69.4388 16.6634 70.3025 16.6634C72.3179 16.6634 73.9104 17.2842 75.08 18.5259C76.2497 19.7495 76.8345 21.5579 76.8345 23.9512C76.8345 24.1851 76.8255 24.446 76.8075 24.7339C76.7895 25.0038 76.7715 25.2468 76.7535 25.4627H67.6304C67.7203 26.2904 68.1072 26.9472 68.791 27.4331C69.4748 27.9189 70.3925 28.1619 71.5441 28.1619C72.2819 28.1619 73.0017 28.0989 73.7035 27.9729C74.4232 27.829 75.0081 27.658 75.4579 27.4601L75.9978 30.726C75.7818 30.834 75.4939 30.942 75.134 31.05C74.7741 31.1579 74.3693 31.2479 73.9194 31.3199C73.4875 31.4098 73.0197 31.4818 72.5158 31.5358C72.012 31.5898 71.5082 31.6168 71.0043 31.6168C69.7267 31.6168 68.6111 31.4278 67.6574 31.05C66.7216 30.6721 65.9389 30.1592 65.3091 29.5114C64.6973 28.8456 64.2384 28.0629 63.9325 27.1632C63.6446 26.2634 63.5006 25.2917 63.5006 24.2481ZM72.9477 22.7096C72.9297 22.3677 72.8667 22.0348 72.7588 21.7109C72.6688 21.387 72.5158 21.0991 72.2999 20.8471C72.102 20.5952 71.8411 20.3883 71.5172 20.2263C71.2112 20.0644 70.8244 19.9834 70.3565 19.9834C69.9067 19.9834 69.5198 20.0644 69.1959 20.2263C68.872 20.3703 68.6021 20.5682 68.3861 20.8201C68.1702 21.0721 67.9992 21.369 67.8733 21.7109C67.7653 22.0348 67.6843 22.3677 67.6304 22.7096H72.9477Z" fill="#150639"/>
<path d="M84.5537 28.4318C84.9495 28.4318 85.3274 28.4228 85.6873 28.4048C86.0472 28.3868 86.3351 28.3598 86.551 28.3238V25.2738C86.3891 25.2378 86.1462 25.2018 85.8223 25.1658C85.4984 25.1298 85.2015 25.1118 84.9316 25.1118C84.5537 25.1118 84.1938 25.1388 83.8519 25.1928C83.528 25.2288 83.2401 25.3097 82.9882 25.4357C82.7362 25.5617 82.5383 25.7326 82.3943 25.9485C82.2504 26.1645 82.1784 26.4344 82.1784 26.7583C82.1784 27.3881 82.3853 27.829 82.7992 28.0809C83.2311 28.3148 83.8159 28.4318 84.5537 28.4318ZM84.2298 16.6634C85.4174 16.6634 86.4071 16.7984 87.1988 17.0683C87.9906 17.3382 88.6204 17.7251 89.0883 18.229C89.5741 18.7328 89.916 19.3446 90.1139 20.0644C90.3119 20.7842 90.4108 21.5849 90.4108 22.4666V30.834C89.835 30.96 89.0343 31.1039 88.0086 31.2659C86.9829 31.4458 85.7413 31.5358 84.2838 31.5358C83.366 31.5358 82.5293 31.4548 81.7735 31.2929C81.0358 31.1309 80.397 30.87 79.8571 30.5101C79.3173 30.1322 78.9034 29.6464 78.6155 29.0526C78.3276 28.4588 78.1837 27.73 78.1837 26.8663C78.1837 26.0385 78.3456 25.3367 78.6695 24.7609C79.0114 24.1851 79.4613 23.7262 80.0191 23.3843C80.5769 23.0424 81.2157 22.7995 81.9355 22.6556C82.6553 22.4936 83.402 22.4126 84.1758 22.4126C84.6976 22.4126 85.1565 22.4396 85.5524 22.4936C85.9662 22.5296 86.2991 22.5836 86.551 22.6556V22.2777C86.551 21.5939 86.3441 21.0451 85.9302 20.6312C85.5164 20.2173 84.7966 20.0104 83.7709 20.0104C83.0871 20.0104 82.4123 20.0644 81.7465 20.1723C81.0808 20.2623 80.5049 20.3973 80.0191 20.5772L79.5062 17.3382C79.7402 17.2663 80.0281 17.1943 80.37 17.1223C80.7299 17.0323 81.1167 16.9603 81.5306 16.9064C81.9445 16.8344 82.3763 16.7804 82.8262 16.7444C83.2941 16.6904 83.7619 16.6634 84.2298 16.6634Z" fill="#150639"/>
<path d="M92.563 24.1401C92.563 23.1144 92.725 22.1517 93.0489 21.252C93.3907 20.3343 93.8766 19.5425 94.5064 18.8767C95.1362 18.193 95.901 17.6531 96.8007 17.2573C97.7004 16.8614 98.7261 16.6634 99.8777 16.6634C100.633 16.6634 101.326 16.7354 101.956 16.8794C102.586 17.0053 103.198 17.1943 103.792 17.4462L102.955 20.6582C102.577 20.5142 102.163 20.3883 101.713 20.2803C101.263 20.1723 100.759 20.1184 100.202 20.1184C99.014 20.1184 98.1233 20.4872 97.5295 21.225C96.9536 21.9628 96.6657 22.9345 96.6657 24.1401C96.6657 25.4177 96.9356 26.4074 97.4755 27.1092C98.0333 27.811 98.996 28.1619 100.364 28.1619C100.849 28.1619 101.371 28.1169 101.929 28.0269C102.487 27.9369 103 27.793 103.468 27.595L104.034 30.888C103.567 31.0859 102.982 31.2569 102.28 31.4008C101.578 31.5448 100.804 31.6168 99.9587 31.6168C98.6631 31.6168 97.5474 31.4278 96.6117 31.05C95.676 30.6541 94.9023 30.1232 94.2905 29.4574C93.6966 28.7917 93.2558 28.0089 92.9679 27.1092C92.698 26.1915 92.563 25.2018 92.563 24.1401Z" fill="#150639"/>
<path d="M105.924 31.2389V10.9412L109.946 10.2934V17.0953C110.216 17.0053 110.557 16.9244 110.971 16.8524C111.403 16.7624 111.817 16.7174 112.213 16.7174C113.365 16.7174 114.318 16.8794 115.074 17.2033C115.848 17.5092 116.46 17.95 116.909 18.5259C117.377 19.1017 117.701 19.7855 117.881 20.5772C118.079 21.369 118.178 22.2507 118.178 23.2224V31.2389H114.156V23.7082C114.156 22.4126 113.985 21.4949 113.643 20.9551C113.32 20.4153 112.708 20.1454 111.808 20.1454C111.448 20.1454 111.106 20.1813 110.782 20.2533C110.476 20.3073 110.198 20.3703 109.946 20.4423V31.2389H105.924Z" fill="#150639"/>
<path d="M123.167 9.72424H130.028V12.474H125.921V31.002H130.028V33.7399H123.167V9.72424Z" fill="#FF7C04"/>
<path d="M191 33.7399L184.138 33.7399L184.138 30.9902L188.246 30.9902L188.246 12.4622L184.138 12.4622L184.138 9.72424L191 9.72424L191 33.7399Z" fill="#FF7C04"/>
<path fill-rule="evenodd" clip-rule="evenodd" d="M169.197 10.9412V31.2389H173.219V20.4423C173.47 20.3703 173.749 20.3073 174.055 20.2533C174.379 20.1813 174.721 20.1453 175.081 20.1453C175.981 20.1453 176.592 20.4153 176.916 20.9551C177.258 21.4949 177.429 22.4126 177.429 23.7082V31.2389H181.451V23.2224C181.451 22.2507 181.352 21.369 181.154 20.5772C180.974 19.7855 180.65 19.1017 180.182 18.5259C179.733 17.95 179.121 17.5092 178.347 17.2033C177.591 16.8794 176.637 16.7174 175.486 16.7174C175.09 16.7174 174.676 16.7624 174.244 16.8524C173.83 16.9244 173.488 17.0053 173.219 17.0953V10.2934L169.197 10.9412ZM136.772 12.8576L132.751 13.5054V17.0396H130.084V20.3855H132.751V25.4357C132.751 26.3534 132.832 27.1901 132.993 27.9459C133.173 28.7017 133.479 29.3495 133.911 29.8893C134.343 30.4111 134.919 30.825 135.639 31.1309C136.358 31.4188 137.267 31.5628 138.365 31.5628C139.229 31.5628 139.957 31.4908 140.551 31.3468C141.145 31.2029 141.685 31.0319 142.171 30.834L141.604 27.703C141.226 27.8469 140.803 27.9639 140.335 28.0539C139.885 28.1259 139.444 28.1618 139.013 28.1618C138.113 28.1618 137.51 27.9099 137.204 27.4061C136.916 26.9022 136.772 26.2274 136.772 25.3817V20.3883H141.604V17.0413H136.772V12.8576ZM146.849 31.4698C147.269 31.5258 147.668 31.5538 148.046 31.5538C149.054 31.5538 149.921 31.4418 150.649 31.2179C151.391 30.98 152 30.6581 152.475 30.2522C152.951 29.8323 153.301 29.3425 153.525 28.7826C153.749 28.2088 153.861 27.586 153.861 26.9142C153.861 26.0605 153.651 25.3327 153.231 24.7309C152.825 24.1151 152.245 23.6532 151.489 23.3453C152.035 23.0654 152.468 22.6596 152.79 22.1277C153.112 21.5819 153.273 21.0221 153.273 20.4483C153.273 19.8604 153.175 19.3216 152.979 18.8318C152.783 18.3279 152.482 17.894 152.077 17.5302C151.671 17.1523 151.153 16.8654 150.523 16.6694C149.907 16.4595 149.172 16.3545 148.319 16.3545C147.857 16.3545 147.416 16.3965 146.996 16.4805C146.59 16.5645 146.205 16.6694 145.842 16.7954C145.478 16.9214 145.142 17.0613 144.834 17.2153C144.54 17.3692 144.281 17.5162 144.057 17.6561L145.17 19.9444C145.59 19.6785 146.051 19.4546 146.555 19.2726C147.073 19.0907 147.633 18.9997 148.235 18.9997C148.473 18.9997 148.704 19.0347 148.928 19.1047C149.165 19.1607 149.368 19.2516 149.536 19.3776C149.718 19.5035 149.865 19.6645 149.977 19.8604C150.089 20.0564 150.145 20.2873 150.145 20.5532C150.145 20.9031 150.075 21.197 149.935 21.4349C149.809 21.6589 149.634 21.8408 149.41 21.9808C149.186 22.1067 148.928 22.1977 148.634 22.2537C148.354 22.3097 148.06 22.3377 147.752 22.3377H146.366V24.8569H147.584C148.018 24.8569 148.424 24.8919 148.802 24.9618C149.193 25.0178 149.529 25.1298 149.809 25.2977C150.089 25.4517 150.306 25.6616 150.46 25.9275C150.628 26.1795 150.712 26.4944 150.712 26.8722C150.712 27.4881 150.488 27.9779 150.04 28.3418C149.592 28.7057 148.886 28.8876 147.92 28.8876C147.08 28.8876 146.373 28.8036 145.8 28.6357C145.24 28.4537 144.778 28.2858 144.414 28.1318L143.805 30.735C143.987 30.819 144.239 30.91 144.561 31.0079C144.883 31.1059 145.24 31.1969 145.632 31.2809C146.023 31.3648 146.429 31.4278 146.849 31.4698ZM155.566 24.1401C155.566 23.1144 155.728 22.1517 156.052 21.252C156.394 20.3343 156.88 19.5425 157.509 18.8767C158.139 18.193 158.904 17.6531 159.804 17.2572C160.703 16.8614 161.729 16.6634 162.881 16.6634C163.637 16.6634 164.329 16.7354 164.959 16.8794C165.589 17.0053 166.201 17.1943 166.795 17.4462L165.958 20.6582C165.58 20.5142 165.166 20.3883 164.716 20.2803C164.266 20.1723 163.762 20.1184 163.205 20.1184C162.017 20.1184 161.126 20.4872 160.532 21.225C159.957 21.9628 159.669 22.9345 159.669 24.1401C159.669 25.4177 159.939 26.4074 160.479 27.1092C161.036 27.8109 161.999 28.1618 163.367 28.1618C163.852 28.1618 164.374 28.1169 164.932 28.0269C165.49 27.9369 166.003 27.793 166.471 27.595L167.037 30.888C166.57 31.0859 165.985 31.2569 165.283 31.4008C164.581 31.5448 163.807 31.6168 162.962 31.6168C161.666 31.6168 160.55 31.4278 159.615 31.0499C158.679 30.6541 157.905 30.1232 157.294 29.4574C156.7 28.7916 156.259 28.0089 155.971 27.1092C155.701 26.1915 155.566 25.2018 155.566 24.1401Z" fill="#150639"/>
<path d="M148.263 31.6162C147.885 31.6162 147.486 31.5882 147.066 31.5322C146.646 31.4902 146.24 31.4272 145.848 31.3432C145.456 31.2592 145.099 31.1682 144.777 31.0703C144.455 30.9723 144.203 30.8813 144.021 30.7973L144.63 28.1936C144.994 28.3476 145.456 28.5156 146.016 28.6976C146.59 28.8656 147.297 28.9495 148.137 28.9495C149.103 28.9495 149.81 28.7676 150.258 28.4036C150.705 28.0397 150.929 27.5497 150.929 26.9338C150.929 26.5559 150.845 26.2409 150.677 25.9889C150.524 25.723 150.307 25.513 150.027 25.359C149.747 25.191 149.411 25.0791 149.019 25.0231C148.641 24.9531 148.235 24.9181 147.801 24.9181H146.583V22.3984H147.969C148.277 22.3984 148.571 22.3704 148.851 22.3144C149.145 22.2584 149.404 22.1674 149.628 22.0415C149.852 21.9015 150.027 21.7195 150.153 21.4955C150.293 21.2576 150.363 20.9636 150.363 20.6137C150.363 20.3477 150.307 20.1167 150.195 19.9207C150.083 19.7248 149.936 19.5638 149.754 19.4378C149.586 19.3118 149.383 19.2208 149.145 19.1648C148.921 19.0949 148.69 19.0599 148.452 19.0599C147.85 19.0599 147.29 19.1509 146.772 19.3328C146.268 19.5148 145.806 19.7388 145.386 20.0047L144.273 17.716C144.497 17.5761 144.756 17.4291 145.05 17.2751C145.358 17.1211 145.694 16.9811 146.058 16.8552C146.422 16.7292 146.807 16.6242 147.213 16.5402C147.633 16.4562 148.074 16.4142 148.536 16.4142C149.39 16.4142 150.125 16.5192 150.74 16.7292C151.37 16.9251 151.888 17.2121 152.294 17.5901C152.7 17.954 153.001 18.388 153.197 18.8919C153.393 19.3818 153.491 19.9207 153.491 20.5087C153.491 21.0826 153.33 21.6425 153.008 22.1884C152.686 22.7204 152.252 23.1263 151.706 23.4063C152.462 23.7142 153.043 24.1762 153.449 24.7921C153.869 25.394 154.079 26.1219 154.079 26.9758C154.079 27.6477 153.967 28.2706 153.743 28.8446C153.519 29.4045 153.169 29.8944 152.693 30.3144C152.217 30.7203 151.608 31.0423 150.866 31.2802C150.139 31.5042 149.271 31.6162 148.263 31.6162Z" fill="#150639"/>
<path fill-rule="evenodd" clip-rule="evenodd" d="M144.273 17.7163C144.497 17.5763 144.756 17.4293 145.05 17.2753C145.358 17.1213 145.694 16.9814 146.058 16.8554C146.422 16.7294 146.807 16.6244 147.213 16.5404C147.633 16.4564 148.074 16.4144 148.536 16.4144C149.389 16.4144 150.124 16.5194 150.74 16.7294C151.37 16.9254 151.888 17.2123 152.294 17.5903C152.7 17.9542 153.001 18.3882 153.197 18.8921C153.393 19.382 153.491 19.921 153.491 20.5089C153.491 21.0828 153.33 21.6427 153.008 22.1887C152.742 22.6277 152.4 22.9809 151.982 23.2483C151.893 23.3049 151.801 23.3576 151.706 23.4065C151.806 23.4473 151.903 23.4908 151.997 23.537C152.613 23.8396 153.097 24.258 153.449 24.7923C153.869 25.3942 154.079 26.1221 154.079 26.976C154.079 27.6479 153.967 28.2709 153.743 28.8448C153.519 29.4047 153.169 29.8946 152.693 30.3146C152.217 30.7205 151.608 31.0425 150.866 31.2805C150.138 31.5044 149.27 31.6164 148.263 31.6164C147.885 31.6164 147.486 31.5884 147.066 31.5324C146.646 31.4904 146.24 31.4274 145.848 31.3434C145.456 31.2595 145.099 31.1685 144.777 31.0705C144.455 30.9725 144.203 30.8815 144.021 30.7975L144.63 28.1939C144.705 28.2257 144.785 28.2582 144.869 28.2913C145.189 28.418 145.572 28.5535 146.016 28.6978C146.59 28.8658 147.297 28.9498 148.137 28.9498C149.102 28.9498 149.809 28.7678 150.257 28.4038C150.705 28.0399 150.929 27.55 150.929 26.934C150.929 26.5561 150.845 26.2411 150.677 25.9892C150.523 25.7232 150.306 25.5132 150.026 25.3592C149.746 25.1913 149.41 25.0793 149.018 25.0233C148.64 24.9533 148.235 24.9183 147.801 24.9183H146.583V22.3986H147.969C148.277 22.3986 148.57 22.3706 148.85 22.3147C149.144 22.2587 149.403 22.1677 149.627 22.0417C149.851 21.9017 150.026 21.7197 150.152 21.4958C150.292 21.2578 150.362 20.9638 150.362 20.6139C150.362 20.3479 150.306 20.1169 150.194 19.921C150.082 19.725 149.935 19.564 149.753 19.438C149.585 19.3121 149.382 19.2211 149.144 19.1651C148.92 19.0951 148.689 19.0601 148.452 19.0601C147.85 19.0601 147.29 19.1511 146.772 19.3331C146.354 19.484 145.965 19.6638 145.604 19.8725C145.53 19.9155 145.458 19.9596 145.386 20.005L144.273 17.7163ZM146.857 19.5728C146.37 19.7489 145.925 19.9648 145.522 20.2199L145.282 20.3723L143.944 17.6218L144.138 17.5005C144.369 17.3563 144.634 17.2062 144.932 17.0499L144.936 17.0477C145.255 16.8882 145.601 16.7441 145.975 16.6149C146.35 16.4851 146.745 16.3773 147.161 16.2912L147.163 16.2909C147.6 16.2034 148.058 16.16 148.536 16.16C149.408 16.16 150.171 16.2669 150.819 16.4874C151.476 16.6923 152.028 16.9955 152.466 17.4024C152.9 17.7922 153.223 18.2585 153.434 18.7988C153.643 19.3217 153.745 19.8927 153.745 20.5089C153.745 21.1329 153.57 21.737 153.227 22.3179L153.226 22.3204C152.967 22.7478 152.64 23.101 152.245 23.3781C152.833 23.6923 153.307 24.1156 153.659 24.6495C154.113 25.3002 154.333 26.0801 154.333 26.976C154.333 27.6767 154.216 28.3313 153.98 28.9373L153.979 28.9393C153.74 29.5381 153.365 30.0605 152.861 30.5054L152.858 30.5082C152.351 30.9407 151.71 31.277 150.944 31.5228L150.941 31.5237C150.182 31.7571 149.288 31.8709 148.263 31.8709C147.873 31.8709 147.464 31.8421 147.036 31.7852C146.609 31.7423 146.195 31.6781 145.795 31.5923C145.397 31.5071 145.033 31.4143 144.703 31.3139C144.376 31.2145 144.112 31.1196 143.914 31.0286L143.726 30.9416L144.451 27.8418L144.729 27.9595C145.083 28.1093 145.537 28.2744 146.091 28.4546C146.634 28.613 147.314 28.6953 148.137 28.6953C149.08 28.6953 149.716 28.5158 150.097 28.2063C150.481 27.8943 150.675 27.4792 150.675 26.934C150.675 26.5938 150.599 26.3312 150.465 26.1303L150.461 26.1236L150.457 26.1167C150.327 25.8924 150.145 25.7148 149.904 25.5822L149.895 25.5776C149.65 25.4304 149.348 25.3274 148.982 25.2752L148.972 25.2737C148.611 25.2069 148.221 25.1728 147.801 25.1728H146.328V22.1442H147.969C148.261 22.1442 148.538 22.1176 148.801 22.0651L148.803 22.0647C149.072 22.0135 149.302 21.9318 149.497 21.8228C149.684 21.7052 149.827 21.5551 149.93 21.371L149.933 21.3667C150.044 21.177 150.108 20.9304 150.108 20.6139C150.108 20.3843 150.06 20.1984 149.973 20.0472C149.88 19.8836 149.759 19.7512 149.608 19.6473L149.601 19.6418C149.465 19.54 149.295 19.462 149.086 19.4128L149.077 19.4107L149.069 19.408C148.869 19.3458 148.664 19.3146 148.452 19.3146C147.876 19.3146 147.345 19.4014 146.857 19.5728Z" fill="#150639"/>
<path d="M16.74 33.74C7.49474 33.74 -3.54681e-05 26.2452 -3.5064e-05 17C-3.46599e-05 7.7547 7.49474 0.259932 16.74 0.259933C25.9853 0.259933 33.48 7.7547 33.48 17C33.48 24.9505 33.4468 33.6948 33.4468 33.6948C33.4468 33.6948 25.5296 33.74 16.74 33.74Z" fill="#FF7C04"/>
<path d="M14.5364 9.17463L18.3859 8.55457V12.5591H23.0106V15.7628H18.3859V20.5424C18.3859 21.352 18.5237 21.9979 18.7993 22.4801C19.0921 22.9624 19.6691 23.2035 20.5303 23.2035C20.9437 23.2035 21.3657 23.1691 21.7963 23.1002C22.2441 23.0141 22.6807 22.8807 23.0425 22.743V24.3477V25.8349C22.6339 26.0473 22.5713 26.1144 22.003 26.2522C21.4346 26.39 20.737 26.4589 19.9102 26.4589C18.8596 26.4589 17.9898 26.3211 17.3008 26.0455C16.6119 25.7527 16.0607 25.3565 15.6473 24.857C15.2339 24.3403 14.9411 23.7202 14.7689 22.9968C14.6139 22.2734 14.5364 21.4725 14.5364 20.5941V9.17463Z" fill="white"/>
<rect x="9.8941" y="12.5622" width="3.52234" height="3.20064" fill="white"/>
</svg>
