<svg width="24" height="25" viewBox="0 0 24 25" fill="none" xmlns="http://www.w3.org/2000/svg">
<path d="M21.1709 12.1506C21.1743 13.4705 20.866 14.7725 20.2709 15.9506C19.5653 17.3623 18.4806 18.5498 17.1383 19.3799C15.796 20.21 14.2491 20.65 12.6709 20.6506C11.351 20.654 10.049 20.3457 8.8709 19.7506L3.1709 21.6506L5.0709 15.9506C4.47583 14.7725 4.16746 13.4705 4.1709 12.1506C4.17151 10.5724 4.61151 9.02545 5.44162 7.68315C6.27172 6.34085 7.45915 5.25617 8.8709 4.5506C10.049 3.95553 11.351 3.64716 12.6709 3.6506H13.1709C15.2552 3.76559 17.2239 4.64536 18.7 6.12146C20.1761 7.59756 21.0559 9.56625 21.1709 11.6506V12.1506Z" stroke="#FF7C04" stroke-width="2" stroke-linecap="round" stroke-linejoin="round"/>
</svg>
