<svg width="23" height="18" viewBox="0 0 23 18" fill="none" xmlns="http://www.w3.org/2000/svg">
<path fill-rule="evenodd" clip-rule="evenodd" d="M22.3513 2.14813C21.562 2.50758 20.7122 2.75057 19.8208 2.85914C20.731 2.30067 21.4296 1.41496 21.7587 0.360098C20.9064 0.877292 19.9646 1.25353 18.9584 1.45523C18.1566 0.577414 17.0105 0.0291748 15.7422 0.0291748C13.3101 0.0291748 11.337 2.05247 11.337 4.54783C11.337 4.90208 11.3747 5.24592 11.4504 5.57701C7.7881 5.38806 4.54163 3.59097 2.36663 0.853967C1.98721 1.5237 1.77023 2.30067 1.77023 3.12814C1.77023 4.69516 2.5482 6.07843 3.73076 6.88913C3.00968 6.86714 2.3287 6.66158 1.73364 6.32545V6.381C1.73364 8.5711 3.25284 10.3979 5.27009 10.8117C4.90074 10.9178 4.51109 10.9708 4.10884 10.9708C3.82524 10.9708 3.54785 10.9436 3.27918 10.8906C3.84018 12.6852 5.4666 13.9922 7.39559 14.0271C5.88764 15.2399 3.98651 15.9625 1.9226 15.9625C1.56701 15.9625 1.21527 15.9419 0.871094 15.9004C2.82156 17.1803 5.13887 17.9289 7.62633 17.9289C15.7331 17.9289 20.1647 11.0443 20.1647 5.07257C20.1647 4.87606 20.1608 4.67956 20.1533 4.48691C21.0148 3.84956 21.7624 3.05447 22.3513 2.14813Z" fill="#C7CCDB"/>
</svg>
