<svg width="214" height="174" viewBox="0 0 214 174" fill="none" xmlns="http://www.w3.org/2000/svg">
<path d="M0.833008 4.02197C0.833008 1.81283 2.62387 0.0219727 4.83301 0.0219727H209.333C211.542 0.0219727 213.333 1.81283 213.333 4.02197V169.138C213.333 171.347 211.542 173.138 209.333 173.138H4.833C2.62386 173.138 0.833008 171.347 0.833008 169.138V4.02197Z" fill="#CED4DA"/>
<path d="M128.021 109.611H86.1455C84.4796 109.611 82.882 108.95 81.704 107.772C80.526 106.594 79.8643 104.996 79.8643 103.33V69.8301C79.8643 68.1642 80.526 66.5665 81.704 65.3886C82.882 64.2106 84.4796 63.5488 86.1455 63.5488H128.021C129.686 63.5488 131.284 64.2106 132.462 65.3886C133.64 66.5665 134.302 68.1642 134.302 69.8301V103.33C134.302 104.996 133.64 106.594 132.462 107.772C131.284 108.95 129.686 109.611 128.021 109.611ZM86.1455 67.7363C85.5902 67.7363 85.0577 67.9569 84.665 68.3496C84.2723 68.7422 84.0518 69.2748 84.0518 69.8301V103.33C84.0518 103.885 84.2723 104.418 84.665 104.811C85.0577 105.203 85.5902 105.424 86.1455 105.424H128.021C128.576 105.424 129.108 105.203 129.501 104.811C129.894 104.418 130.114 103.885 130.114 103.33V69.8301C130.114 69.2748 129.894 68.7422 129.501 68.3496C129.108 67.9569 128.576 67.7363 128.021 67.7363H86.1455Z" fill="#A7ADB3"/>
<path d="M117.552 84.4863C116.309 84.4863 115.095 84.1179 114.062 83.4278C113.029 82.7376 112.224 81.7566 111.749 80.6088C111.273 79.4611 111.149 78.1981 111.391 76.9797C111.634 75.7612 112.232 74.642 113.11 73.7636C113.989 72.8851 115.108 72.2869 116.326 72.0445C117.545 71.8022 118.808 71.9265 119.955 72.402C121.103 72.8774 122.084 73.6825 122.774 74.7154C123.465 75.7484 123.833 76.9628 123.833 78.2051C123.833 79.871 123.171 81.4686 121.993 82.6466C120.815 83.8246 119.218 84.4863 117.552 84.4863ZM117.552 76.1113C117.138 76.1113 116.733 76.2341 116.389 76.4642C116.044 76.6943 115.776 77.0213 115.617 77.4038C115.459 77.7864 115.417 78.2074 115.498 78.6136C115.579 79.0197 115.778 79.3928 116.071 79.6856C116.364 79.9784 116.737 80.1778 117.143 80.2586C117.549 80.3394 117.97 80.2979 118.353 80.1395C118.736 79.981 119.063 79.7126 119.293 79.3683C119.523 79.024 119.646 78.6192 119.646 78.2051C119.646 77.6498 119.425 77.1172 119.032 76.7246C118.64 76.3319 118.107 76.1113 117.552 76.1113Z" fill="#A7ADB3"/>
<path d="M128.021 109.611C127.676 109.61 127.337 109.523 127.034 109.358C126.73 109.194 126.473 108.957 126.283 108.669L117.196 95.0597C117.004 94.7747 116.746 94.5412 116.443 94.3797C116.14 94.2183 115.802 94.1338 115.458 94.1338C115.115 94.1338 114.777 94.2183 114.474 94.3797C114.171 94.5412 113.912 94.7747 113.72 95.0597L113.008 96.1066C112.681 96.5129 112.214 96.7824 111.699 96.8622C111.183 96.9421 110.656 96.8267 110.221 96.5385C109.787 96.2504 109.475 95.8102 109.348 95.3043C109.22 94.7984 109.286 94.2632 109.533 93.8035L110.224 92.7357C110.797 91.8719 111.575 91.1633 112.488 90.6732C113.401 90.183 114.422 89.9265 115.458 89.9265C116.495 89.9265 117.515 90.183 118.428 90.6732C119.342 91.1633 120.12 91.8719 120.693 92.7357L129.758 106.366C130.062 106.828 130.17 107.39 130.06 107.931C129.95 108.473 129.631 108.948 129.172 109.255C128.835 109.492 128.432 109.616 128.021 109.611Z" fill="#A7ADB3"/>
<path d="M86.1454 109.611C85.7442 109.61 85.3517 109.494 85.0147 109.276C84.5489 108.976 84.2212 108.503 84.1035 107.962C83.9857 107.42 84.0875 106.854 84.3866 106.387L97.4307 86.2451C97.9968 85.3704 98.7716 84.6502 99.6854 84.1495C100.599 83.6487 101.623 83.3832 102.665 83.3767C103.701 83.3763 104.721 83.6323 105.635 84.1218C106.548 84.6113 107.326 85.3192 107.899 86.1823L121.341 106.366C121.588 106.826 121.654 107.361 121.527 107.867C121.399 108.373 121.088 108.813 120.653 109.101C120.218 109.389 119.691 109.505 119.176 109.425C118.66 109.345 118.193 109.075 117.866 108.669L104.403 88.5064C104.213 88.2184 103.955 87.9817 103.652 87.8173C103.349 87.6529 103.01 87.566 102.665 87.5642C102.318 87.5683 101.978 87.6584 101.675 87.8265C101.371 87.9946 101.114 88.2354 100.927 88.5273L87.9041 108.648C87.7149 108.943 87.4548 109.186 87.1475 109.354C86.8403 109.522 86.4957 109.611 86.1454 109.611Z" fill="#A7ADB3"/>
</svg>
