<svg width="132" height="132" viewBox="0 0 132 132" fill="none" xmlns="http://www.w3.org/2000/svg">
<path fill-rule="evenodd" clip-rule="evenodd" d="M66 131.319C29.8816 131.319 0.601805 102.039 0.601807 65.9209C0.601808 29.8025 29.8816 0.522703 66.0001 0.522705C102.118 0.522708 131.398 29.8025 131.398 65.9209C131.398 96.9811 131.268 131.143 131.268 131.143C131.268 131.143 100.338 131.319 66 131.319ZM57.3909 35.3507L72.4299 32.9283V48.5729H90.497V61.0886H72.4299V79.7612C72.4299 82.9238 72.9683 85.4471 74.0449 87.3312C75.1888 89.2153 77.443 90.1573 80.8074 90.1573C82.4223 90.1573 84.0709 90.0227 85.7531 89.7536C87.5026 89.4171 89.2085 88.8963 90.6216 88.358V94.6271V100.437C90.355 100.576 90.1262 100.699 89.9195 100.81C88.8888 101.362 88.4103 101.619 86.5606 102.067C84.34 102.606 81.6149 102.875 78.385 102.875C74.2804 102.875 70.8823 102.337 68.1908 101.26C65.4992 100.116 63.346 98.5684 61.731 96.617C60.1161 94.5984 58.9722 92.176 58.2993 89.3498C57.6937 86.5237 57.3909 83.3948 57.3909 79.9631V35.3507ZM53.0152 48.5851H39.2545V61.089H53.0152V48.5851Z" fill="white"/>
</svg>
