<svg width="34" height="34" viewBox="0 0 34 34" fill="none" xmlns="http://www.w3.org/2000/svg">
<path d="M16.74 33.4801C7.49474 33.4801 -3.54681e-05 25.9853 -3.5064e-05 16.74C-3.46599e-05 7.49477 7.49474 -1.13585e-06 16.74 -7.3173e-07C25.9853 -3.27607e-07 33.48 7.49477 33.48 16.74C33.48 24.6905 33.4468 33.4349 33.4468 33.4349C33.4468 33.4349 25.5296 33.4801 16.74 33.4801Z" fill="#FF7C04"/>
<path d="M14.5364 8.91468L18.3859 8.29462V12.2992H23.0106V15.5028H18.3859V20.2825C18.3859 21.092 18.5237 21.7379 18.7993 22.2202C19.0921 22.7024 19.6691 22.9436 20.5303 22.9436C20.9437 22.9436 21.3657 22.9091 21.7963 22.8402C22.2441 22.7541 22.6807 22.6208 23.0424 22.483V24.0877V25.575C22.6339 25.7874 22.5713 25.8544 22.003 25.9922C21.4346 26.13 20.737 26.1989 19.9102 26.1989C18.8596 26.1989 17.9898 26.0611 17.3008 25.7855C16.6119 25.4927 16.0607 25.0966 15.6473 24.5971C15.2339 24.0804 14.9411 23.4603 14.7689 22.7369C14.6139 22.0135 14.5364 21.2126 14.5364 20.3342V8.91468Z" fill="white"/>
<rect x="9.8941" y="12.3022" width="3.52234" height="3.20064" fill="white"/>
</svg>
